<svg id="レイヤー_1" data-name="レイヤー 1" xmlns="http://www.w3.org/2000/svg" viewBox="0 0 720 1280"><defs><style>.cls-1{fill:#c9caca;}</style></defs><path class="cls-1" d="M654.83,596.44c-7.65-14.09-18.93-20.54-44.31-39.87s-32.22-56.4-63.64-83.38-80.9-85.75-99.14-97.91-49.86-16.54-56.67-26-2.68-29.18-2.68-29.18a22.61,22.61,0,0,0,7.06-10.7,66.57,66.57,0,0,0,2.67-12.16s8.27-6.33,8.27-13.38a11.44,11.44,0,0,0-5.83-10c.4-.84,8.42-18.07-1.66-33.1-5.38-8-14.22-11.25-19.59-13.26a57.17,57.17,0,0,0-38.62,0c-5.37,2-14.21,5.22-19.59,13.26-10.08,15-2.06,32.26-1.66,33.1a11.44,11.44,0,0,0-5.83,10c0,7.05,8.27,13.38,8.27,13.38a66.57,66.57,0,0,0,2.67,12.16,22.61,22.61,0,0,0,7.06,10.7s4.13,19.7-2.68,29.18-38.43,13.87-56.67,26-67.72,70.92-99.14,97.91-38.26,64-63.64,83.38-36.66,25.78-44.31,39.87a71.1,71.1,0,0,0-8.86,39.08c.81,11.27,9.26-.49,16.51-10.72s-1.61-8.62,5.24-18.29,14.5-13.69,17.32-11.68-25.78,25-10.07,23.37,21-23.37,33.43-37.47,47.13-52.36,76.94-74.51S294,387.79,291.14,423.64s6,101.91,6,126.08S284.7,577.51,279.06,617s1.31,141.06,18.69,173.42,1.2,34.77,3.6,91.1,38.36,112.08,21.58,142-32.37,31.76-7.8,31.76,46.15,5.4,37.16-18,3.6-118.67,1.8-153.43-7.19-45.55-7.79-75.52c-.38-18.89,2.34-21.82,4.85-33.13,2.78-12.51,3.28-21.81,3.54-33.39.3-13.26,1.64-34.64,5.31-71.56,3.67,36.92,5,58.3,5.31,71.56.26,11.58.76,20.88,3.54,33.39,2.51,11.31,5.23,14.24,4.85,33.13-.6,30-6,40.76-7.79,75.52s10.79,130.06,1.8,153.43,12.58,18,37.16,18,9-1.8-7.8-31.76,19.18-85.71,21.58-142-13.78-58.73,3.6-91.1S446.58,656.46,440.94,617s-18.12-43.1-18.12-67.27,8.86-90.23,6-126.08,65.65,60.42,95.46,82.58,64.45,60.42,76.94,74.51S619,616.58,634.69,618.2s-12.89-21.35-10.07-23.37,10.47,2,17.32,11.68-2,8.06,5.24,18.29,15.7,22,16.51,10.72A71.1,71.1,0,0,0,654.83,596.44Z"/></svg>