<svg id="レイヤー_1" data-name="レイヤー 1" xmlns="http://www.w3.org/2000/svg" viewBox="0 0 720 1280"><defs><style>.cls-1,.cls-2{fill:none;}.cls-1{stroke:#898989;stroke-miterlimit:10;}</style></defs><polygon class="cls-1" points="360 345.27 321.98 340.8 344.67 358.06 373.16 358.06 396.39 340.8 360 345.27"/><path class="cls-1" d="M359.19,369.81l14-11.75Z"/><polyline class="cls-1" points="344.67 358.06 355.63 366.93 359.19 369.81"/><polygon class="cls-2" points="312.72 354.66 339.05 382.45 355.63 366.93 321.98 340.8 312.72 354.66"/><polygon class="cls-1" points="406.3 354.86 379.54 382.45 362.89 366.7 396.39 340.8 406.3 354.86"/><polygon class="cls-1" points="339.05 382.45 355.63 366.93 321.98 340.8 312.72 354.66 339.05 382.45"/><path class="cls-1" d="M114,527.57l29.65,27.32L266.11,455a225.4,225.4,0,0,0,5.15-47.69c0-26.42-8.41-37.5-8.41-37.5l49.87-15.15,26.33,27.79,16.58-15.52-1.29,309.79h9.4l-.85-310"/><line class="cls-1" x1="262.85" y1="369.81" x2="94.68" y2="547.81"/><polyline class="cls-1" points="122.39 572.29 143.66 554.89 114.01 527.58"/><line class="cls-1" x1="94.68" y1="547.21" x2="122.39" y2="572.3"/><path class="cls-1" d="M266.11,455s1.75,44.73,2.65,81.2-5.63,125.4-5.63,125.4,27.56-.15,38.12,5.13,53.09,10,53.09,10"/><path class="cls-1" d="M622.15,545.38,593.62,572.3Z"/><line class="cls-1" x1="604.17" y1="527.57" x2="622.15" y2="545.38"/><path class="cls-1" d="M406.3,354.86,455,369.81,604.17,527.57l-29.91,28.75,19.36,16L451.51,455s-1.75,44.73-2.65,81.2,5.63,125.4,5.63,125.4-27.56-.15-38.12,5.13-53.09,10-53.09,10"/><path class="cls-1" d="M454.61,369.92s-5.06,13.39-5.8,34.23,2.76,50.91,2.76,50.91"/><circle class="cls-1" cx="359.19" cy="403.81" r="3.38"/><circle class="cls-1" cx="359.19" cy="435.01" r="3.38"/><circle class="cls-1" cx="359.19" cy="466.41" r="3.38"/><circle class="cls-1" cx="359.19" cy="499.38" r="3.38"/><circle class="cls-1" cx="359.19" cy="531.63" r="3.38"/><circle class="cls-1" cx="359.19" cy="563.89" r="3.38"/><circle class="cls-1" cx="359.08" cy="593.92" r="3.38"/><circle class="cls-1" cx="359.19" cy="627.89" r="3.38"/></svg>